<svg width="386" height="80" viewBox="0 0 386 80" fill="none" xmlns="http://www.w3.org/2000/svg">
<g filter="url(#filter0_d)">
<rect x="200.333" y="33.3333" width="17.3333" height="17.3333" fill="black"/>
<rect x="217.667" y="33.3333" width="17.3333" height="17.3333" fill="#3D9936"/>
<rect x="200.333" y="16" width="17.3333" height="17.3333" fill="#0000FF"/>
<rect x="183" y="33.3333" width="17.3333" height="17.3333" fill="#FF0000"/>
<rect x="200.333" y="50.6667" width="17.3333" height="17.3333" fill="#FFFF00"/>
<path d="M13.1562 35.9375L5.1875 34.5C6.08333 31.2917 7.625 28.9167 9.8125 27.375C12 25.8333 15.25 25.0625 19.5625 25.0625C23.4792 25.0625 26.3958 25.5312 28.3125 26.4688C30.2292 27.3854 31.5729 28.5625 32.3438 30C33.1354 31.4167 33.5312 34.0312 33.5312 37.8438L33.4375 48.0938C33.4375 51.0104 33.5729 53.1667 33.8438 54.5625C34.1354 55.9375 34.6667 57.4167 35.4375 59H26.75C26.5208 58.4167 26.2396 57.5521 25.9062 56.4062C25.7604 55.8854 25.6562 55.5417 25.5938 55.375C24.0938 56.8333 22.4896 57.9271 20.7812 58.6562C19.0729 59.3854 17.25 59.75 15.3125 59.75C11.8958 59.75 9.19792 58.8229 7.21875 56.9688C5.26042 55.1146 4.28125 52.7708 4.28125 49.9375C4.28125 48.0625 4.72917 46.3958 5.625 44.9375C6.52083 43.4583 7.77083 42.3333 9.375 41.5625C11 40.7708 13.3333 40.0833 16.375 39.5C20.4792 38.7292 23.3229 38.0104 24.9062 37.3438V36.4688C24.9062 34.7812 24.4896 33.5833 23.6562 32.875C22.8229 32.1458 21.25 31.7812 18.9375 31.7812C17.375 31.7812 16.1562 32.0938 15.2812 32.7188C14.4062 33.3229 13.6979 34.3958 13.1562 35.9375ZM24.9062 43.0625C23.7812 43.4375 22 43.8854 19.5625 44.4062C17.125 44.9271 15.5312 45.4375 14.7812 45.9375C13.6354 46.75 13.0625 47.7812 13.0625 49.0312C13.0625 50.2604 13.5208 51.3229 14.4375 52.2188C15.3542 53.1146 16.5208 53.5625 17.9375 53.5625C19.5208 53.5625 21.0312 53.0417 22.4688 52C23.5312 51.2083 24.2292 50.2396 24.5625 49.0938C24.7917 48.3438 24.9062 46.9167 24.9062 44.8125V43.0625ZM39.125 49.5312L47.9375 48.1875C48.3125 49.8958 49.0729 51.1979 50.2188 52.0938C51.3646 52.9688 52.9688 53.4062 55.0312 53.4062C57.3021 53.4062 59.0104 52.9896 60.1562 52.1562C60.9271 51.5729 61.3125 50.7917 61.3125 49.8125C61.3125 49.1458 61.1042 48.5938 60.6875 48.1562C60.25 47.7396 59.2708 47.3542 57.75 47C50.6667 45.4375 46.1771 44.0104 44.2812 42.7188C41.6562 40.9271 40.3438 38.4375 40.3438 35.25C40.3438 32.375 41.4792 29.9583 43.75 28C46.0208 26.0417 49.5417 25.0625 54.3125 25.0625C58.8542 25.0625 62.2292 25.8021 64.4375 27.2812C66.6458 28.7604 68.1667 30.9479 69 33.8438L60.7188 35.375C60.3646 34.0833 59.6875 33.0938 58.6875 32.4062C57.7083 31.7188 56.3021 31.375 54.4688 31.375C52.1562 31.375 50.5 31.6979 49.5 32.3438C48.8333 32.8021 48.5 33.3958 48.5 34.125C48.5 34.75 48.7917 35.2812 49.375 35.7188C50.1667 36.3021 52.8958 37.125 57.5625 38.1875C62.25 39.25 65.5208 40.5521 67.375 42.0938C69.2083 43.6562 70.125 45.8333 70.125 48.625C70.125 51.6667 68.8542 54.2812 66.3125 56.4688C63.7708 58.6562 60.0104 59.75 55.0312 59.75C50.5104 59.75 46.9271 58.8333 44.2812 57C41.6562 55.1667 39.9375 52.6771 39.125 49.5312ZM74.75 49.5312L83.5625 48.1875C83.9375 49.8958 84.6979 51.1979 85.8438 52.0938C86.9896 52.9688 88.5938 53.4062 90.6562 53.4062C92.9271 53.4062 94.6354 52.9896 95.7812 52.1562C96.5521 51.5729 96.9375 50.7917 96.9375 49.8125C96.9375 49.1458 96.7292 48.5938 96.3125 48.1562C95.875 47.7396 94.8958 47.3542 93.375 47C86.2917 45.4375 81.8021 44.0104 79.9062 42.7188C77.2812 40.9271 75.9688 38.4375 75.9688 35.25C75.9688 32.375 77.1042 29.9583 79.375 28C81.6458 26.0417 85.1667 25.0625 89.9375 25.0625C94.4792 25.0625 97.8542 25.8021 100.062 27.2812C102.271 28.7604 103.792 30.9479 104.625 33.8438L96.3438 35.375C95.9896 34.0833 95.3125 33.0938 94.3125 32.4062C93.3333 31.7188 91.9271 31.375 90.0938 31.375C87.7812 31.375 86.125 31.6979 85.125 32.3438C84.4583 32.8021 84.125 33.3958 84.125 34.125C84.125 34.75 84.4167 35.2812 85 35.7188C85.7917 36.3021 88.5208 37.125 93.1875 38.1875C97.875 39.25 101.146 40.5521 103 42.0938C104.833 43.6562 105.75 45.8333 105.75 48.625C105.75 51.6667 104.479 54.2812 101.938 56.4688C99.3958 58.6562 95.6354 59.75 90.6562 59.75C86.1354 59.75 82.5521 58.8333 79.9062 57C77.2812 55.1667 75.5625 52.6771 74.75 49.5312ZM132.688 48.4375L141.438 49.9062C140.312 53.1146 138.531 55.5625 136.094 57.25C133.677 58.9167 130.646 59.75 127 59.75C121.229 59.75 116.958 57.8646 114.188 54.0938C112 51.0729 110.906 47.2604 110.906 42.6562C110.906 37.1562 112.344 32.8542 115.219 29.75C118.094 26.625 121.729 25.0625 126.125 25.0625C131.062 25.0625 134.958 26.6979 137.812 29.9688C140.667 33.2188 142.031 38.2083 141.906 44.9375H119.906C119.969 47.5417 120.677 49.5729 122.031 51.0312C123.385 52.4688 125.073 53.1875 127.094 53.1875C128.469 53.1875 129.625 52.8125 130.562 52.0625C131.5 51.3125 132.208 50.1042 132.688 48.4375ZM133.188 39.5625C133.125 37.0208 132.469 35.0938 131.219 33.7812C129.969 32.4479 128.448 31.7812 126.656 31.7812C124.74 31.7812 123.156 32.4792 121.906 33.875C120.656 35.2708 120.042 37.1667 120.062 39.5625H133.188ZM164.312 25.8125V32.8125H158.312V46.1875C158.312 48.8958 158.365 50.4792 158.469 50.9375C158.594 51.375 158.854 51.7396 159.25 52.0312C159.667 52.3229 160.167 52.4688 160.75 52.4688C161.562 52.4688 162.74 52.1875 164.281 51.625L165.031 58.4375C162.99 59.3125 160.677 59.75 158.094 59.75C156.51 59.75 155.083 59.4896 153.812 58.9688C152.542 58.4271 151.604 57.7396 151 56.9062C150.417 56.0521 150.01 54.9062 149.781 53.4688C149.594 52.4479 149.5 50.3854 149.5 47.2812V32.8125H145.469V25.8125H149.5V19.2188L158.312 14.0938V25.8125H164.312Z" fill="black"/>
<path d="M251.938 25.8125H260.031V30.3438C262.927 26.8229 266.375 25.0625 270.375 25.0625C272.5 25.0625 274.344 25.5 275.906 26.375C277.469 27.25 278.75 28.5729 279.75 30.3438C281.208 28.5729 282.781 27.25 284.469 26.375C286.156 25.5 287.958 25.0625 289.875 25.0625C292.312 25.0625 294.375 25.5625 296.062 26.5625C297.75 27.5417 299.01 28.9896 299.844 30.9062C300.448 32.3229 300.75 34.6146 300.75 37.7812V59H291.969V40.0312C291.969 36.7396 291.667 34.6146 291.062 33.6562C290.25 32.4062 289 31.7812 287.312 31.7812C286.083 31.7812 284.927 32.1562 283.844 32.9062C282.76 33.6562 281.979 34.7604 281.5 36.2188C281.021 37.6562 280.781 39.9375 280.781 43.0625V59H272V40.8125C272 37.5833 271.844 35.5 271.531 34.5625C271.219 33.625 270.729 32.9271 270.062 32.4688C269.417 32.0104 268.531 31.7812 267.406 31.7812C266.052 31.7812 264.833 32.1458 263.75 32.875C262.667 33.6042 261.885 34.6562 261.406 36.0312C260.948 37.4062 260.719 39.6875 260.719 42.875V59H251.938V25.8125ZM316.094 35.9375L308.125 34.5C309.021 31.2917 310.562 28.9167 312.75 27.375C314.938 25.8333 318.188 25.0625 322.5 25.0625C326.417 25.0625 329.333 25.5312 331.25 26.4688C333.167 27.3854 334.51 28.5625 335.281 30C336.073 31.4167 336.469 34.0312 336.469 37.8438L336.375 48.0938C336.375 51.0104 336.51 53.1667 336.781 54.5625C337.073 55.9375 337.604 57.4167 338.375 59H329.688C329.458 58.4167 329.177 57.5521 328.844 56.4062C328.698 55.8854 328.594 55.5417 328.531 55.375C327.031 56.8333 325.427 57.9271 323.719 58.6562C322.01 59.3854 320.188 59.75 318.25 59.75C314.833 59.75 312.135 58.8229 310.156 56.9688C308.198 55.1146 307.219 52.7708 307.219 49.9375C307.219 48.0625 307.667 46.3958 308.562 44.9375C309.458 43.4583 310.708 42.3333 312.312 41.5625C313.938 40.7708 316.271 40.0833 319.312 39.5C323.417 38.7292 326.26 38.0104 327.844 37.3438V36.4688C327.844 34.7812 327.427 33.5833 326.594 32.875C325.76 32.1458 324.188 31.7812 321.875 31.7812C320.312 31.7812 319.094 32.0938 318.219 32.7188C317.344 33.3229 316.635 34.3958 316.094 35.9375ZM327.844 43.0625C326.719 43.4375 324.938 43.8854 322.5 44.4062C320.062 44.9271 318.469 45.4375 317.719 45.9375C316.573 46.75 316 47.7812 316 49.0312C316 50.2604 316.458 51.3229 317.375 52.2188C318.292 53.1146 319.458 53.5625 320.875 53.5625C322.458 53.5625 323.969 53.0417 325.406 52C326.469 51.2083 327.167 50.2396 327.5 49.0938C327.729 48.3438 327.844 46.9167 327.844 44.8125V43.0625ZM344.906 25.8125H353.094V30.6875C354.156 29.0208 355.594 27.6667 357.406 26.625C359.219 25.5833 361.229 25.0625 363.438 25.0625C367.292 25.0625 370.562 26.5729 373.25 29.5938C375.938 32.6146 377.281 36.8229 377.281 42.2188C377.281 47.7604 375.927 52.0729 373.219 55.1562C370.51 58.2188 367.229 59.75 363.375 59.75C361.542 59.75 359.875 59.3854 358.375 58.6562C356.896 57.9271 355.333 56.6771 353.688 54.9062V71.625H344.906V25.8125ZM353.594 41.8438C353.594 45.5729 354.333 48.3333 355.812 50.125C357.292 51.8958 359.094 52.7812 361.219 52.7812C363.26 52.7812 364.958 51.9688 366.312 50.3438C367.667 48.6979 368.344 46.0104 368.344 42.2812C368.344 38.8021 367.646 36.2188 366.25 34.5312C364.854 32.8438 363.125 32 361.062 32C358.917 32 357.135 32.8333 355.719 34.5C354.302 36.1458 353.594 38.5938 353.594 41.8438Z" fill="black"/>
</g>
<defs>
<filter id="filter0_d" x="0.28125" y="14.0938" width="381" height="65.5312" filterUnits="userSpaceOnUse" color-interpolation-filters="sRGB">
<feFlood flood-opacity="0" result="BackgroundImageFix"/>
<feColorMatrix in="SourceAlpha" type="matrix" values="0 0 0 0 0 0 0 0 0 0 0 0 0 0 0 0 0 0 127 0"/>
<feOffset dy="4"/>
<feGaussianBlur stdDeviation="2"/>
<feColorMatrix type="matrix" values="0 0 0 0 0 0 0 0 0 0 0 0 0 0 0 0 0 0 0.48 0"/>
<feBlend mode="normal" in2="BackgroundImageFix" result="effect1_dropShadow"/>
<feBlend mode="normal" in="SourceGraphic" in2="effect1_dropShadow" result="shape"/>
</filter>
</defs>
</svg>
